<svg width="257" height="64" viewBox="0 0 257 64" fill="none" xmlns="http://www.w3.org/2000/svg">
<path d="M52.068 45.416L37.86 20.936H39.996L46.692 31.88C47.604 33.32 48.348 34.624 48.924 35.792H49.092C49.572 34.624 50.28 33.32 51.228 31.88L58.092 20.936H60.228L45.912 45.416H52.068Z" fill="#20342A"/>
<path d="M68.5816 45.416V20.936H70.7176V45.416H68.5816Z" fill="#20342A"/>
<path d="M78.6835 45.416V20.936H86.2915C88.6355 20.936 90.1315 21.344 90.7795 22.16C91.4635 22.94 91.8055 24.128 91.8055 25.724C91.8055 26.852 91.5535 27.788 91.0495 28.532C90.5815 29.24 89.8615 29.744 88.8895 30.044V30.188C90.2215 30.452 91.1455 31.052 91.6615 31.988C92.1775 32.888 92.4355 34.004 92.4355 35.336C92.4355 37.076 92.0935 38.48 91.4095 39.548C90.7615 40.58 89.6335 41.096 88.0255 41.096H78.6835ZM80.8195 29.6H86.2195C87.4835 29.6 88.3075 29.24 88.6915 28.52C89.1115 27.8 89.3215 26.864 89.3215 25.712C89.3215 24.596 89.1115 23.696 88.6915 23.012C88.3075 22.292 87.4835 21.932 86.2195 21.932H80.8195V29.6ZM80.8195 40.032H87.6835C88.9475 40.032 89.8195 39.632 90.3005 38.832C90.8165 38.032 91.0745 36.964 91.0745 35.628C91.0745 34.292 90.8165 33.248 90.3005 32.5C89.8195 31.716 88.9475 31.324 87.6835 31.324H80.8195V40.032Z" fill="#20342A"/>
<path d="M96.4421 45.416V20.936H110.122V22.628H98.5781V32.12H109.114V33.812H98.5781V45.416H96.4421Z" fill="#20342A"/>
<path d="M120.252 45.728C117.844 45.728 115.844 45.1 114.252 43.844C112.696 42.588 111.918 40.852 111.918 38.636C111.918 36.42 112.696 34.684 114.252 33.428C115.844 32.136 117.844 31.49 120.252 31.49C122.66 31.49 124.66 32.136 126.252 33.428C127.88 34.684 128.694 36.42 128.694 38.636C128.694 40.852 127.88 42.588 126.252 43.844C124.66 45.1 122.66 45.728 120.252 45.728ZM120.252 44.036C121.98 44.036 123.264 43.46 124.104 42.308C124.98 41.12 125.418 39.944 125.418 38.78C125.418 36.452 124.626 34.7 122.994 33.524C122.19 32.916 121.284 32.612 120.276 32.612C118.44 32.612 117.084 33.368 116.208 34.88C115.74 35.708 115.506 36.812 115.506 38.192C115.506 40.736 116.322 42.44 117.954 43.304C118.674 43.736 119.466 44.036 120.252 44.036Z" fill="#20342A"/>
<path d="M131.782 45.416V32.42H133.574L138.83 40.736C139.382 41.564 139.826 42.32 140.162 43.004H140.33C140.594 42.212 141.062 41.348 141.734 40.412L147.214 32.42H149.006V45.416H147.214V35.492C147.214 34.628 147.11 33.8 146.902 33.008H146.734C146.122 34.232 145.234 35.492 144.07 36.788L139.754 42.668H138.59L134.138 36.788C133.046 35.492 132.194 34.244 131.582 33.044H131.414C131.246 33.8 131.162 34.628 131.162 35.492V45.416H131.782Z" fill="#20342A"/>
<path d="M165.733 45.416L158.461 32.42H160.733L164.501 38.9C164.981 39.728 165.353 40.52 165.617 41.276H165.785C166.085 40.52 166.493 39.728 167.009 38.9L170.813 32.42H173.085L165.733 45.416Z" fill="#20342A"/>
<path d="M182.261 45.416V36.476L176.125 32.42H178.645L182.261 35.252L185.877 32.42H188.397L182.261 36.476V45.416Z" fill="#20342A"/>
<path d="M25.3375 22.376C25.3375 23.432 25.1215 24.284 24.6895 24.932C24.2575 25.58 23.6335 25.904 22.8175 25.904C21.9655 25.904 21.3055 25.58 20.8375 24.932C20.4055 24.284 20.1895 23.432 20.1895 22.376C20.1895 21.32 20.4055 20.468 20.8375 19.82C21.3055 19.172 21.9655 18.848 22.8175 18.848C23.6335 18.848 24.2575 19.172 24.6895 19.82C25.1215 20.468 25.3375 21.32 25.3375 22.376Z" fill="#80E891"/>
<path d="M30.4357 26.216C31.2637 26.216 31.8757 25.928 32.2717 25.352C32.7037 24.74 32.9197 23.96 32.9197 23.012C32.9197 22.064 32.7037 21.284 32.2717 20.672C31.8757 20.024 31.2637 19.7 30.4357 19.7H26.9677V26.216H30.4357ZM28.7257 20.588H30.2377C30.9577 20.588 31.4617 20.768 31.7497 21.128C32.0737 21.452 32.2357 22.04 32.2357 22.892C32.2357 23.744 32.0737 24.332 31.7497 24.656C31.4617 24.98 30.9577 25.148 30.2377 25.148H28.7257V20.588Z" fill="#20342A"/>
<path d="M196.223 45.416V20.936H198.359V45.416H196.223Z" fill="#20342A"/>
<path d="M207.039 26.216C207.867 26.216 208.479 25.928 208.875 25.352C209.307 24.74 209.523 23.96 209.523 23.012C209.523 22.064 209.307 21.284 20.875 20.672C208.479 20.024 207.867 19.7 207.039 19.7H203.571V26.216H207.039ZM205.323 20.588H206.835C207.555 20.588 208.059 20.768 208.347 21.128C208.671 21.452 208.831 22.04 208.831 22.892C208.831 23.744 208.671 24.332 208.347 24.656C208.059 24.98 207.555 25.148 206.835 25.148H205.323V20.588Z" fill="#20342A"/>
<path d="M96.7937 26.216C97.6217 26.216 98.2337 25.928 98.6297 25.352C99.0617 24.74 99.2777 23.96 99.2777 23.012C99.2777 22.064 99.0617 21.284 98.6297 20.672C98.2337 20.024 97.6217 19.7 96.7937 19.7H93.3257V26.216H96.7937ZM95.0837 20.588H96.5957C97.3157 20.588 97.8197 20.768 98.1077 21.128C98.4317 21.452 98.5937 22.04 98.5937 22.892C98.5937 23.744 98.4317 24.332 98.1077 24.656C97.8197 24.98 97.3157 25.148 96.5957 25.148H95.0837V20.588Z" fill="#20342A"/>
<path d="M211.758 26.048H213.518V19.868H211.758V26.048Z" fill="#20342A"/>
<path d="M222.083 26.216C222.911 26.216 223.523 25.928 223.919 25.352C224.351 24.74 224.567 23.96 224.567 23.012C224.567 22.064 224.351 21.284 223.919 20.672C223.523 20.024 222.911 19.7 222.083 19.7H218.615V26.216H222.083ZM220.373 20.588H221.885C222.605 20.588 223.109 20.768 223.397 21.128C223.721 21.452 223.883 22.04 223.883 22.892C223.883 23.744 223.721 24.332 223.397 24.656C223.109 24.98 222.605 25.148 221.885 25.148H220.373V20.588Z" fill="#20342A"/>
<path d="M110.871 26.048H112.631V19.868H110.871V26.048Z" fill="#20342A"/>
<path d="M48.2619 26.048H50.0219V19.868H48.2619V26.048Z" fill="#20342A"/>
<path d="M60.7715 26.048H62.5315V19.868H60.7715V26.048Z" fill="#20342A"/>
<path d="M136.211 26.048H137.971V19.868H136.211V26.048Z" fill="#20342A"/>
<path d="M151.701 26.048H153.461V19.868H151.701V26.048Z" fill="#20342A"/>
<path d="M189.961 26.048H191.721V19.868H189.961V26.048Z" fill="#20342A"/>
<path d="M129.431 26.048H131.191V19.868H129.431V26.048Z" fill="#20342A"/>
<path d="M149.201 26.048H150.961V19.868H149.201V26.048Z" fill="#20342A"/>
<path d="M44.7554 26.216C45.5834 26.216 46.1954 25.928 46.5914 25.352C47.0234 24.74 47.2394 23.96 47.2394 23.012C47.2394 22.064 47.0234 21.284 46.5914 20.672C46.1954 20.024 45.5834 19.7 44.7554 19.7H41.2874V26.216H44.7554ZM43.0454 20.588H44.5574C45.2774 20.588 45.7814 20.768 46.0694 21.128C46.3934 21.452 46.5554 22.04 46.5554 22.892C46.5554 23.744 46.3934 24.332 46.0694 24.656C45.7814 24.98 45.2774 25.148 44.5574 25.148H43.0454V20.588Z" fill="#20342A"/>
<path d="M57.2655 26.216C58.0935 26.216 58.7055 25.928 59.1015 25.352C59.5335 24.74 59.7495 23.96 59.7495 23.012C59.7495 22.064 59.5335 21.284 59.1015 20.672C58.7055 20.024 58.0935 19.7 57.2655 19.7H53.7975V26.216H57.2655ZM55.5555 20.588H57.0675C57.7875 20.588 58.2915 20.768 58.5795 21.128C58.9035 21.452 59.0655 22.04 59.0655 22.892C59.0655 23.744 58.9035 24.332 58.5795 24.656C58.2915 24.98 57.7875 25.148 57.0675 25.148H55.5555V20.588Z" fill="#20342A"/>
<path d="M12.9818 45.416L0.261816 20.936H2.94982L9.20182 31.148C9.64582 31.892 10.0538 32.6 10.4258 33.272H10.5938C10.8938 32.528 11.3378 31.784 11.9258 31.04L18.3818 20.936H21.0698L8.24182 45.416H12.9818Z" fill="#20342A"/>
<path d="M25.6883 45.416V27.836H27.8243V45.416H25.6883Z" fill="#20342A"/>
</svg>
