<svg width="512" height="512" viewBox="0 0 168 168" fill="none" xmlns="http://www.w3.org/2000/svg">
<g clip-path="url(#clip0_105_2)">
<path d="M125.66,31.32c-15.32-15.32-35.8-23.75-57.43-23.75c-44.88,0-81.25,36.37-81.25,81.25c0,14.32,4.24,28.29,11.83,40.48L0,168l42.6-11.23c11.75,6.43,24.98,10.15,38.78,10.15h0.04c44.84,0,81.25-36.37,81.25-81.25C149.41,67.12,140.98,46.64,125.66,31.32z" fill="#38761D" stroke="none"/>
<path d="M120.31,44.75c-14.39-14.39-33.6-22.31-54.08-22.31c-42.32,0-76.62,34.31-76.62,76.62c0,13.62,3.99,26.96,11.2,38.16L0,168l40.71-10.66c11.15,6.09,23.63,9.59,36.63,9.59h0.04c42.29,0,76.62-34.31,76.62-76.62C142.62,78.35,134.7,59.14,120.31,44.75z" fill="#FFF" stroke="none"/>
<path d="M125.66,31.32c-15.32-15.32-35.8-23.75-57.43-23.75c-44.88,0-81.25,36.37-81.25,81.25c0,14.32,4.24,28.29,11.83,40.48L0,168l42.6-11.23c11.75,6.43,24.98,10.15,38.78,10.15h0.04c44.84,0,81.25-36.37,81.25-81.25C149.41,67.12,140.98,46.64,125.66,31.32z" fill="#38761D" stroke="none"/>
<path d="M114.96,58.19c-13.56-13.56-31.65-21.02-51-21.02c-39.88,0-72.19,32.32-72.19,72.19c0,12.83,3.76,25.4,10.55,35.95L0,168l38.36-10.05c10.5,5.74,22.27,9.04,34.51,9.04h0.04c39.84,0,72.19-32.32,72.19-72.19C135.98,89.84,128.52,71.75,114.96,58.19z" fill="#FFF" stroke="none"/>
<path d="M159.25 7.56 L159.25 64.99 L134.13 64.99 L134.13 7.56 L159.25 7.56 Z M159.25 103.01 L159.25 160.44 L134.13 160.44 L134.13 103.01 L159.25 103.01 Z" fill="#38761D"/>
<text x="84" y="102" font-family="Space Grotesk, sans-serif" font-size="34" font-weight="700" fill="#202020" text-anchor="middle" dominant-baseline="middle">CASH.IN</text>
</g>
<defs>
<clipPath id="clip0_105_2">
<rect width="168" height="168" fill="white"/>
</clipPath>
</defs>
</svg>
